# xmcd
#
# Track frame offsets: 
#        182
#        56785
#        82655
#        130120
#        168165
#        188127
#        224857
#        265327
#
# Disc length: 4226 seconds
#
# Revision: 0
# Processed by: cddbd v1.4PL0 Copyright (c) Steve Scherf et al.
# Submitted via: ExactAudioCopy v0.90a11
#
DISCID=6f108008
DTITLE=Robben Ford - Anthology - The Early Years (1 of 2)
DYEAR=1900
DGENRE=
TTITLE0=Sweet Sixteen
TTITLE1=You Drive a Hard Bargain
TTITLE2=Raining In My Heart
TTITLE3=Blue and Lonesome
TTITLE4=Red Rooster
TTITLE5=Eighty One
TTITLE6=Miss Miss
TTITLE7=Sunrise
EXTD=
EXTT0=
EXTT1=
EXTT2=
EXTT3=
EXTT4=
EXTT5=
EXTT6=
EXTT7=
PLAYORDER=
